<svg width="512" height="512" xmlns="http://www.w3.org/2000/svg" viewBox="0 0 512 512"><path fill="#3c9cd7" fill-rule="evenodd" d="M 265 11.7 C 245.2 13.3, 217.2 20.0, 197.8 27.7 L 186 32.4 186 210.7 L 186 389 228 389 L 270 389 269.9 353.2 L 269.9 317.5 252.4 297 C 242.7 285.7, 234.6 275.9, 234.3 275.2 C 234.0 274.5, 241.7 263.4, 251.8 250.0 L 270 226.1 270 119.1 C 270 60.2, 269.6 11.9, 269.2 11.7 C 268.8 11.6, 266.9 11.5, 265 11.7 M 173.5 38.8 C 151.0 50.7, 132.0 64.8, 113.9 82.9 C 74.5 122.3, 50.7 170.9, 43.4 227 C 41.1 244.6, 41.8 280.6, 44.8 297.5 C 49.3 322.4, 55.5 341.9, 65.9 363.5 C 98.3 431.3, 161.1 481.2, 234.5 497.4 C 258.6 502.7, 291.1 504.4, 315.3 501.6 C 347.8 497.8, 378.5 488.0, 406.7 472.6 C 411.7 469.8, 415.7 467.4, 415.6 467.3 C 415.5 467.1, 410.8 468.8, 405.2 471.0 C 392.3 476.1, 373.6 481.2, 357.8 484.0 C 340.3 487.1, 306.7 487.8, 288 485.5 C 177.3 472.0, 90.2 387.3, 73.5 277 C 71.2 262.0, 70.4 234.1, 71.9 219 C 79.1 144.3, 118.3 78.4, 181.0 35.8 C 185.3 32.8, 182.7 33.8, 173.5 38.8 M 300.2 218.0 C 270.9 256.7, 258.1 274.4, 258.7 275.3 C 260.2 278.0, 418.1 465, 418.9 465 C 419.8 465, 432.0 456.6, 440.2 450.3 C 447.0 445.2, 471.9 421.1, 475.1 416.8 L 477.0 414.1 417.0 343.0 L 357.1 271.9 396.2 220.2 C 417.7 191.7, 436.4 167.0, 437.8 165.2 L 440.2 162 391.3 162.0 L 342.5 162.0 300.2 218.0"/></svg>